<mxfile>
    <diagram id="xo5I-hWTRF1pfRs_K1zt" name="페이지-1">
        <mxGraphModel dx="1127" dy="790" grid="1" gridSize="10" guides="1" tooltips="1" connect="1" arrows="1" fold="1" page="1" pageScale="1" pageWidth="1169" pageHeight="827" background="#FFFFFF" math="0" shadow="0">
            <root>
                <mxCell id="0"/>
                <mxCell id="1" parent="0"/>
                <mxCell id="2" value="Start" style="rounded=0;whiteSpace=wrap;html=1;strokeWidth=2;fillColor=#76C1E2;strokeColor=#3B88D9;fontStyle=1;fontColor=#000000;fontSize=13;fontFamily=Noto Sans KR;fontSource=https%3A%2F%2Ffonts.googleapis.com%2Fcss%3Ffamily%3DNoto%2BSans%2BKR;" parent="1" vertex="1">
                    <mxGeometry x="60" y="25" width="120" height="60" as="geometry"/>
                </mxCell>
                <mxCell id="3" value="로그인" style="rounded=0;whiteSpace=wrap;html=1;strokeWidth=2;fillColor=#9ACCE2;strokeColor=#3B88D9;fontStyle=1;fontColor=#000000;fontSize=13;fontFamily=Noto Sans KR;fontSource=https%3A%2F%2Ffonts.googleapis.com%2Fcss%3Ffamily%3DNoto%2BSans%2BKR;" parent="1" vertex="1">
                    <mxGeometry x="60" y="145" width="120" height="60" as="geometry"/>
                </mxCell>
                <mxCell id="56" style="edgeStyle=orthogonalEdgeStyle;rounded=0;orthogonalLoop=1;jettySize=auto;html=1;exitX=0.5;exitY=1;exitDx=0;exitDy=0;entryX=0.5;entryY=0;entryDx=0;entryDy=0;endArrow=none;endFill=0;strokeColor=#000000;strokeWidth=2;fontFamily=Noto Sans KR;fontSource=https%3A%2F%2Ffonts.googleapis.com%2Fcss%3Ffamily%3DNoto%2BSans%2BKR;fontSize=13;fontColor=#000000;" parent="1" source="4" target="55" edge="1">
                    <mxGeometry relative="1" as="geometry"/>
                </mxCell>
                <mxCell id="4" value="내 옷장 페이지" style="rounded=0;whiteSpace=wrap;html=1;fillColor=#9ACCE2;strokeWidth=2;strokeColor=#3B88D9;fontStyle=1;fontColor=#000000;fontSize=13;fontFamily=Noto Sans KR;fontSource=https%3A%2F%2Ffonts.googleapis.com%2Fcss%3Ffamily%3DNoto%2BSans%2BKR;" parent="1" vertex="1">
                    <mxGeometry x="60" y="265" width="120" height="60" as="geometry"/>
                </mxCell>
                <mxCell id="5" value="내 옷 추가" style="rounded=0;whiteSpace=wrap;html=1;strokeWidth=2;strokeColor=#3B88D9;fontStyle=1;fontColor=#000000;fontSize=13;fontFamily=Noto Sans KR;fontSource=https%3A%2F%2Ffonts.googleapis.com%2Fcss%3Ffamily%3DNoto%2BSans%2BKR;fillColor=#B5E2CA;" parent="1" vertex="1">
                    <mxGeometry x="280" y="40" width="120" height="60" as="geometry"/>
                </mxCell>
                <mxCell id="6" value="내 옷 관리" style="rounded=0;whiteSpace=wrap;html=1;strokeWidth=2;strokeColor=#3B88D9;fontStyle=1;fontColor=#000000;fontSize=13;fontFamily=Noto Sans KR;fontSource=https%3A%2F%2Ffonts.googleapis.com%2Fcss%3Ffamily%3DNoto%2BSans%2BKR;fillColor=#B5E2CA;" parent="1" vertex="1">
                    <mxGeometry x="280" y="220" width="120" height="60" as="geometry"/>
                </mxCell>
                <mxCell id="8" value="카테고리 별 분류" style="rounded=0;whiteSpace=wrap;html=1;strokeWidth=2;strokeColor=#3B88D9;fontStyle=1;fontColor=#000000;fontSize=13;fontFamily=Noto Sans KR;fontSource=https%3A%2F%2Ffonts.googleapis.com%2Fcss%3Ffamily%3DNoto%2BSans%2BKR;fillColor=#B5E2CA;" parent="1" vertex="1">
                    <mxGeometry x="280" y="400" width="120" height="60" as="geometry"/>
                </mxCell>
                <mxCell id="80" style="edgeStyle=orthogonalEdgeStyle;rounded=1;orthogonalLoop=1;jettySize=auto;html=1;exitX=1;exitY=0.5;exitDx=0;exitDy=0;entryX=0;entryY=0.5;entryDx=0;entryDy=0;endArrow=none;endFill=0;strokeColor=#000000;strokeWidth=2;fontFamily=Noto Sans KR;fontSource=https%3A%2F%2Ffonts.googleapis.com%2Fcss%3Ffamily%3DNoto%2BSans%2BKR;fontSize=13;fontColor=#000000;" parent="1" source="9" target="77" edge="1">
                    <mxGeometry relative="1" as="geometry"/>
                </mxCell>
                <mxCell id="9" value="입어보기&lt;br&gt;Try It On!" style="rounded=0;whiteSpace=wrap;html=1;strokeWidth=2;strokeColor=#3B88D9;fontStyle=1;fontColor=#000000;fontSize=13;fontFamily=Noto Sans KR;fontSource=https%3A%2F%2Ffonts.googleapis.com%2Fcss%3Ffamily%3DNoto%2BSans%2BKR;fillColor=#B5E2CA;" parent="1" vertex="1">
                    <mxGeometry x="280" y="490" width="120" height="60" as="geometry"/>
                </mxCell>
                <mxCell id="10" value="내 아바타 촬영" style="rounded=0;whiteSpace=wrap;html=1;strokeWidth=2;strokeColor=#3B88D9;fontStyle=1;fontColor=#000000;fontSize=13;fontFamily=Noto Sans KR;fontSource=https%3A%2F%2Ffonts.googleapis.com%2Fcss%3Ffamily%3DNoto%2BSans%2BKR;fillColor=#B5E2CA;" parent="1" vertex="1">
                    <mxGeometry x="280" y="310" width="120" height="60" as="geometry"/>
                </mxCell>
                <mxCell id="11" value="" style="endArrow=none;html=1;fontSize=13;fontColor=#000000;strokeColor=#000000;strokeWidth=2;entryX=0.5;entryY=1;entryDx=0;entryDy=0;exitX=0.5;exitY=0;exitDx=0;exitDy=0;" parent="1" source="3" target="2" edge="1">
                    <mxGeometry width="50" height="50" relative="1" as="geometry">
                        <mxPoint x="520" y="375" as="sourcePoint"/>
                        <mxPoint x="530" y="165" as="targetPoint"/>
                    </mxGeometry>
                </mxCell>
                <mxCell id="13" value="" style="endArrow=none;html=1;fontSize=13;fontColor=#000000;strokeColor=#000000;strokeWidth=2;entryX=0.5;entryY=1;entryDx=0;entryDy=0;exitX=0.5;exitY=0;exitDx=0;exitDy=0;" parent="1" source="4" target="3" edge="1">
                    <mxGeometry width="50" height="50" relative="1" as="geometry">
                        <mxPoint x="130" y="175" as="sourcePoint"/>
                        <mxPoint x="130" y="95" as="targetPoint"/>
                    </mxGeometry>
                </mxCell>
                <mxCell id="14" value="" style="endArrow=none;html=1;fontSize=13;fontColor=#000000;strokeColor=#000000;strokeWidth=2;entryX=1;entryY=0.5;entryDx=0;entryDy=0;exitX=0;exitY=0.5;exitDx=0;exitDy=0;" parent="1" source="15" target="4" edge="1">
                    <mxGeometry width="50" height="50" relative="1" as="geometry">
                        <mxPoint x="120" y="435" as="sourcePoint"/>
                        <mxPoint x="130" y="235" as="targetPoint"/>
                    </mxGeometry>
                </mxCell>
                <mxCell id="15" value="" style="ellipse;whiteSpace=wrap;html=1;strokeColor=#3B88D9;strokeWidth=2;fillColor=#9ACCE2;gradientColor=none;fontSize=13;fontColor=#000000;" parent="1" vertex="1">
                    <mxGeometry x="220" y="280" width="30" height="30" as="geometry"/>
                </mxCell>
                <mxCell id="20" value="" style="endArrow=diamondThin;html=1;strokeWidth=2;fontSize=13;fontColor=#000000;strokeColor=#000000;edgeStyle=orthogonalEdgeStyle;endFill=1;exitX=0.5;exitY=0;exitDx=0;exitDy=0;entryX=0;entryY=0.5;entryDx=0;entryDy=0;dashed=1;dashPattern=1 1;rounded=1;" parent="1" source="15" target="5" edge="1">
                    <mxGeometry width="50" height="50" relative="1" as="geometry">
                        <mxPoint x="235" y="250" as="sourcePoint"/>
                        <mxPoint x="570" y="295" as="targetPoint"/>
                    </mxGeometry>
                </mxCell>
                <mxCell id="21" value="" style="endArrow=diamondThin;html=1;strokeWidth=2;fontSize=13;fontColor=#000000;strokeColor=#000000;edgeStyle=orthogonalEdgeStyle;endFill=1;exitX=0.5;exitY=0;exitDx=0;exitDy=0;entryX=0;entryY=0.5;entryDx=0;entryDy=0;dashed=1;dashPattern=1 1;rounded=1;" parent="1" source="15" target="6" edge="1">
                    <mxGeometry width="50" height="50" relative="1" as="geometry">
                        <mxPoint x="235" y="250" as="sourcePoint"/>
                        <mxPoint x="290" y="75" as="targetPoint"/>
                    </mxGeometry>
                </mxCell>
                <mxCell id="23" value="" style="endArrow=diamondThin;html=1;strokeWidth=2;fontSize=13;fontColor=#000000;strokeColor=#000000;edgeStyle=orthogonalEdgeStyle;endFill=1;exitX=0.5;exitY=1;exitDx=0;exitDy=0;entryX=0;entryY=0.5;entryDx=0;entryDy=0;dashed=1;dashPattern=1 1;rounded=1;" parent="1" source="15" target="10" edge="1">
                    <mxGeometry width="50" height="50" relative="1" as="geometry">
                        <mxPoint x="235" y="280" as="sourcePoint"/>
                        <mxPoint x="310" y="95" as="targetPoint"/>
                    </mxGeometry>
                </mxCell>
                <mxCell id="24" value="" style="endArrow=diamondThin;html=1;strokeWidth=2;fontSize=13;fontColor=#000000;strokeColor=#000000;edgeStyle=orthogonalEdgeStyle;endFill=1;exitX=0.5;exitY=1;exitDx=0;exitDy=0;entryX=0;entryY=0.5;entryDx=0;entryDy=0;dashed=1;dashPattern=1 1;rounded=1;" parent="1" source="15" target="8" edge="1">
                    <mxGeometry width="50" height="50" relative="1" as="geometry">
                        <mxPoint x="235" y="280" as="sourcePoint"/>
                        <mxPoint x="320" y="105" as="targetPoint"/>
                    </mxGeometry>
                </mxCell>
                <mxCell id="25" value="" style="endArrow=diamondThin;html=1;strokeWidth=2;fontSize=13;fontColor=#000000;strokeColor=#000000;edgeStyle=orthogonalEdgeStyle;endFill=1;exitX=0.5;exitY=1;exitDx=0;exitDy=0;entryX=0;entryY=0.5;entryDx=0;entryDy=0;dashed=1;dashPattern=1 1;rounded=1;" parent="1" source="15" target="9" edge="1">
                    <mxGeometry width="50" height="50" relative="1" as="geometry">
                        <mxPoint x="235" y="280" as="sourcePoint"/>
                        <mxPoint x="330" y="115" as="targetPoint"/>
                    </mxGeometry>
                </mxCell>
                <mxCell id="26" value="내 갤러리에서&lt;br&gt;추가" style="rounded=0;whiteSpace=wrap;html=1;strokeWidth=2;fontStyle=1;fontColor=#000000;fontSize=13;fontFamily=Noto Sans KR;fontSource=https%3A%2F%2Ffonts.googleapis.com%2Fcss%3Ffamily%3DNoto%2BSans%2BKR;fillColor=#FFFFFF;strokeColor=#000000;" parent="1" vertex="1">
                    <mxGeometry x="480" y="20" width="90" height="40" as="geometry"/>
                </mxCell>
                <mxCell id="28" value="" style="rhombus;whiteSpace=wrap;html=1;strokeColor=#3B88D9;strokeWidth=2;fillColor=#B5E2CA;gradientColor=none;fontSize=13;fontColor=#000000;" parent="1" vertex="1">
                    <mxGeometry x="420" y="235" width="30" height="30" as="geometry"/>
                </mxCell>
                <mxCell id="29" value="" style="endArrow=none;html=1;strokeColor=#000000;strokeWidth=2;fontSize=13;fontColor=#000000;exitX=1;exitY=0.5;exitDx=0;exitDy=0;entryX=0;entryY=0.5;entryDx=0;entryDy=0;edgeStyle=orthogonalEdgeStyle;rounded=0;" parent="1" source="34" target="26" edge="1">
                    <mxGeometry width="50" height="50" relative="1" as="geometry">
                        <mxPoint x="520" y="415" as="sourcePoint"/>
                        <mxPoint x="530" y="95" as="targetPoint"/>
                    </mxGeometry>
                </mxCell>
                <mxCell id="30" value="" style="endArrow=none;html=1;strokeColor=#000000;strokeWidth=2;fontSize=13;fontColor=#000000;exitX=1;exitY=0.5;exitDx=0;exitDy=0;entryX=0;entryY=0.5;entryDx=0;entryDy=0;" parent="1" source="6" target="28" edge="1">
                    <mxGeometry width="50" height="50" relative="1" as="geometry">
                        <mxPoint x="410" y="155" as="sourcePoint"/>
                        <mxPoint x="490" y="155" as="targetPoint"/>
                    </mxGeometry>
                </mxCell>
                <mxCell id="32" value="내 옷 삭제" style="rounded=0;whiteSpace=wrap;html=1;strokeWidth=2;strokeColor=#000000;fontStyle=1;fontColor=#000000;fontSize=13;fontFamily=Noto Sans KR;fontSource=https%3A%2F%2Ffonts.googleapis.com%2Fcss%3Ffamily%3DNoto%2BSans%2BKR;fillColor=#FFFFFF;" parent="1" vertex="1">
                    <mxGeometry x="480" y="205" width="90" height="40" as="geometry"/>
                </mxCell>
                <mxCell id="33" value="내 룩 삭제" style="rounded=0;whiteSpace=wrap;html=1;strokeWidth=2;strokeColor=#000000;fontStyle=1;fontColor=#000000;fontSize=13;fontFamily=Noto Sans KR;fontSource=https%3A%2F%2Ffonts.googleapis.com%2Fcss%3Ffamily%3DNoto%2BSans%2BKR;fillColor=#FFFFFF;" parent="1" vertex="1">
                    <mxGeometry x="480" y="265" width="90" height="40" as="geometry"/>
                </mxCell>
                <mxCell id="34" value="" style="rhombus;whiteSpace=wrap;html=1;strokeColor=#3B88D9;strokeWidth=2;fillColor=#B5E2CA;gradientColor=none;fontSize=13;fontColor=#000000;" parent="1" vertex="1">
                    <mxGeometry x="420" y="55" width="30" height="30" as="geometry"/>
                </mxCell>
                <mxCell id="35" value="" style="endArrow=none;html=1;strokeColor=#000000;strokeWidth=2;fontSize=13;fontColor=#000000;exitX=1;exitY=0.5;exitDx=0;exitDy=0;entryX=0;entryY=0.5;entryDx=0;entryDy=0;" parent="1" source="5" target="34" edge="1">
                    <mxGeometry width="50" height="50" relative="1" as="geometry">
                        <mxPoint x="400" y="95" as="sourcePoint"/>
                        <mxPoint x="790" y="65" as="targetPoint"/>
                    </mxGeometry>
                </mxCell>
                <mxCell id="37" value="사진 촬영으로&lt;br&gt;추가" style="rounded=0;whiteSpace=wrap;html=1;strokeWidth=2;strokeColor=#000000;fontStyle=1;fontColor=#000000;fontSize=13;fontFamily=Noto Sans KR;fontSource=https%3A%2F%2Ffonts.googleapis.com%2Fcss%3Ffamily%3DNoto%2BSans%2BKR;fillColor=#FFFFFF;" parent="1" vertex="1">
                    <mxGeometry x="480" y="80" width="90" height="40" as="geometry"/>
                </mxCell>
                <mxCell id="38" value="" style="endArrow=none;html=1;strokeColor=#000000;strokeWidth=2;fontSize=13;fontColor=#000000;exitX=1;exitY=0.5;exitDx=0;exitDy=0;entryX=0;entryY=0.5;entryDx=0;entryDy=0;edgeStyle=orthogonalEdgeStyle;rounded=0;" parent="1" source="34" target="37" edge="1">
                    <mxGeometry width="50" height="50" relative="1" as="geometry">
                        <mxPoint x="500" y="155" as="sourcePoint"/>
                        <mxPoint x="550" y="125" as="targetPoint"/>
                    </mxGeometry>
                </mxCell>
                <mxCell id="40" value="" style="endArrow=none;html=1;strokeColor=#000000;strokeWidth=2;fontSize=13;fontColor=#000000;entryX=0;entryY=0.5;entryDx=0;entryDy=0;edgeStyle=orthogonalEdgeStyle;exitX=1;exitY=0.5;exitDx=0;exitDy=0;rounded=0;" parent="1" source="28" target="32" edge="1">
                    <mxGeometry width="50" height="50" relative="1" as="geometry">
                        <mxPoint x="620" y="135" as="sourcePoint"/>
                        <mxPoint x="585" y="195" as="targetPoint"/>
                    </mxGeometry>
                </mxCell>
                <mxCell id="41" value="" style="endArrow=none;html=1;strokeColor=#000000;strokeWidth=2;fontSize=13;fontColor=#000000;exitX=1;exitY=0.5;exitDx=0;exitDy=0;entryX=0;entryY=0.5;entryDx=0;entryDy=0;edgeStyle=orthogonalEdgeStyle;rounded=0;" parent="1" source="28" target="33" edge="1">
                    <mxGeometry width="50" height="50" relative="1" as="geometry">
                        <mxPoint x="555" y="225" as="sourcePoint"/>
                        <mxPoint x="585" y="255" as="targetPoint"/>
                    </mxGeometry>
                </mxCell>
                <mxCell id="44" value="" style="rhombus;whiteSpace=wrap;html=1;strokeColor=#3B88D9;strokeWidth=2;fillColor=#B5E2CA;gradientColor=none;fontSize=13;fontColor=#000000;" parent="1" vertex="1">
                    <mxGeometry x="420" y="415" width="30" height="30" as="geometry"/>
                </mxCell>
                <mxCell id="45" value="" style="endArrow=none;html=1;strokeColor=#000000;strokeWidth=2;fontSize=13;fontColor=#000000;exitX=1;exitY=0.5;exitDx=0;exitDy=0;entryX=0;entryY=0.5;entryDx=0;entryDy=0;" parent="1" source="8" target="44" edge="1">
                    <mxGeometry width="50" height="50" relative="1" as="geometry">
                        <mxPoint x="410" y="415" as="sourcePoint"/>
                        <mxPoint x="500" y="345" as="targetPoint"/>
                    </mxGeometry>
                </mxCell>
                <mxCell id="46" value="색상 별 분류" style="rounded=0;whiteSpace=wrap;html=1;strokeWidth=2;strokeColor=#000000;fontStyle=1;fontColor=#000000;fontSize=13;fontFamily=Noto Sans KR;fontSource=https%3A%2F%2Ffonts.googleapis.com%2Fcss%3Ffamily%3DNoto%2BSans%2BKR;fillColor=#FFFFFF;" parent="1" vertex="1">
                    <mxGeometry x="480" y="380" width="90" height="40" as="geometry"/>
                </mxCell>
                <mxCell id="47" value="종류 별 분류" style="rounded=0;whiteSpace=wrap;html=1;strokeWidth=2;strokeColor=#000000;fontStyle=1;fontColor=#000000;fontSize=13;fontFamily=Noto Sans KR;fontSource=https%3A%2F%2Ffonts.googleapis.com%2Fcss%3Ffamily%3DNoto%2BSans%2BKR;fillColor=#FFFFFF;" parent="1" vertex="1">
                    <mxGeometry x="480" y="440" width="90" height="40" as="geometry"/>
                </mxCell>
                <mxCell id="48" value="" style="endArrow=none;html=1;strokeColor=#000000;strokeWidth=2;fontSize=13;fontColor=#000000;entryX=0;entryY=0.5;entryDx=0;entryDy=0;edgeStyle=orthogonalEdgeStyle;exitX=1;exitY=0.5;exitDx=0;exitDy=0;rounded=0;" parent="1" source="44" target="46" edge="1">
                    <mxGeometry width="50" height="50" relative="1" as="geometry">
                        <mxPoint x="430" y="275" as="sourcePoint"/>
                        <mxPoint x="480" y="385" as="targetPoint"/>
                    </mxGeometry>
                </mxCell>
                <mxCell id="49" value="" style="endArrow=none;html=1;strokeColor=#000000;strokeWidth=2;fontSize=13;fontColor=#000000;exitX=1;exitY=0.5;exitDx=0;exitDy=0;entryX=0;entryY=0.5;entryDx=0;entryDy=0;edgeStyle=orthogonalEdgeStyle;rounded=0;" parent="1" source="44" target="47" edge="1">
                    <mxGeometry width="50" height="50" relative="1" as="geometry">
                        <mxPoint x="450" y="415" as="sourcePoint"/>
                        <mxPoint x="480" y="445" as="targetPoint"/>
                    </mxGeometry>
                </mxCell>
                <mxCell id="58" style="edgeStyle=orthogonalEdgeStyle;rounded=0;orthogonalLoop=1;jettySize=auto;html=1;exitX=0.5;exitY=1;exitDx=0;exitDy=0;entryX=0.5;entryY=0;entryDx=0;entryDy=0;endArrow=diamondThin;endFill=1;strokeColor=#000000;strokeWidth=2;fontFamily=Noto Sans KR;fontSource=https%3A%2F%2Ffonts.googleapis.com%2Fcss%3Ffamily%3DNoto%2BSans%2BKR;fontSize=13;fontColor=#000000;dashed=1;dashPattern=1 2;" parent="1" source="55" target="57" edge="1">
                    <mxGeometry relative="1" as="geometry"/>
                </mxCell>
                <mxCell id="104" style="edgeStyle=orthogonalEdgeStyle;rounded=1;orthogonalLoop=1;jettySize=auto;html=1;exitX=1;exitY=0.5;exitDx=0;exitDy=0;entryX=0;entryY=0.5;entryDx=0;entryDy=0;endArrow=none;endFill=0;strokeColor=#000000;strokeWidth=2;fontFamily=Noto Sans KR;fontSource=https%3A%2F%2Ffonts.googleapis.com%2Fcss%3Ffamily%3DNoto%2BSans%2BKR;fontSize=13;fontColor=#000000;" parent="1" source="55" target="103" edge="1">
                    <mxGeometry relative="1" as="geometry"/>
                </mxCell>
                <mxCell id="55" value="옷 추천 페이지" style="rounded=0;whiteSpace=wrap;html=1;fillColor=#9ACCE2;strokeWidth=2;strokeColor=#3B88D9;fontStyle=1;fontColor=#000000;fontSize=13;fontFamily=Noto Sans KR;fontSource=https%3A%2F%2Ffonts.googleapis.com%2Fcss%3Ffamily%3DNoto%2BSans%2BKR;" parent="1" vertex="1">
                    <mxGeometry x="60" y="600" width="120" height="60" as="geometry"/>
                </mxCell>
                <mxCell id="59" style="edgeStyle=orthogonalEdgeStyle;rounded=0;orthogonalLoop=1;jettySize=auto;html=1;endArrow=none;endFill=0;strokeColor=#000000;strokeWidth=2;fontFamily=Noto Sans KR;fontSource=https%3A%2F%2Ffonts.googleapis.com%2Fcss%3Ffamily%3DNoto%2BSans%2BKR;fontSize=13;fontColor=#000000;entryX=0;entryY=0.5;entryDx=0;entryDy=0;exitX=1;exitY=0.5;exitDx=0;exitDy=0;" parent="1" source="57" target="60" edge="1">
                    <mxGeometry relative="1" as="geometry">
                        <mxPoint x="470" y="515" as="targetPoint"/>
                        <mxPoint x="220" y="750" as="sourcePoint"/>
                        <Array as="points"/>
                    </mxGeometry>
                </mxCell>
                <mxCell id="57" value="추천 기반 옷 선택" style="rounded=0;whiteSpace=wrap;html=1;strokeWidth=2;strokeColor=#3B88D9;fontStyle=1;fontColor=#000000;fontSize=13;fontFamily=Noto Sans KR;fontSource=https%3A%2F%2Ffonts.googleapis.com%2Fcss%3Ffamily%3DNoto%2BSans%2BKR;fillColor=#B5E2CA;" parent="1" vertex="1">
                    <mxGeometry x="60" y="705" width="120" height="60" as="geometry"/>
                </mxCell>
                <mxCell id="62" style="edgeStyle=orthogonalEdgeStyle;rounded=1;orthogonalLoop=1;jettySize=auto;html=1;exitX=0.5;exitY=1;exitDx=0;exitDy=0;entryX=0.5;entryY=0;entryDx=0;entryDy=0;endArrow=blockThin;endFill=1;strokeColor=#000000;strokeWidth=2;fontFamily=Noto Sans KR;fontSource=https%3A%2F%2Ffonts.googleapis.com%2Fcss%3Ffamily%3DNoto%2BSans%2BKR;fontSize=13;fontColor=#000000;" parent="1" source="60" target="61" edge="1">
                    <mxGeometry relative="1" as="geometry"/>
                </mxCell>
                <mxCell id="60" value="옷 추천 결과" style="rounded=0;whiteSpace=wrap;html=1;strokeWidth=2;strokeColor=#000000;fontStyle=1;fontColor=#000000;fontSize=13;fontFamily=Noto Sans KR;fontSource=https%3A%2F%2Ffonts.googleapis.com%2Fcss%3Ffamily%3DNoto%2BSans%2BKR;fillColor=#FFFFFF;" parent="1" vertex="1">
                    <mxGeometry x="220" y="680" width="90" height="40" as="geometry"/>
                </mxCell>
                <mxCell id="61" value="구매 링크 제공" style="rounded=0;whiteSpace=wrap;html=1;strokeWidth=2;strokeColor=#000000;fontStyle=1;fontColor=#000000;fontSize=13;fontFamily=Noto Sans KR;fontSource=https%3A%2F%2Ffonts.googleapis.com%2Fcss%3Ffamily%3DNoto%2BSans%2BKR;fillColor=#FFFFFF;" parent="1" vertex="1">
                    <mxGeometry x="220" y="750" width="90" height="40" as="geometry"/>
                </mxCell>
                <mxCell id="64" value="환경설정" style="rounded=0;whiteSpace=wrap;html=1;fillColor=#9ACCE2;strokeWidth=2;strokeColor=#3B88D9;fontStyle=1;fontColor=#000000;fontSize=13;fontFamily=Noto Sans KR;fontSource=https%3A%2F%2Ffonts.googleapis.com%2Fcss%3Ffamily%3DNoto%2BSans%2BKR;" parent="1" vertex="1">
                    <mxGeometry x="830" y="600" width="120" height="60" as="geometry"/>
                </mxCell>
                <mxCell id="65" value="내 룩 추가" style="rounded=0;whiteSpace=wrap;html=1;strokeWidth=2;strokeColor=#3B88D9;fontStyle=1;fontColor=#000000;fontSize=13;fontFamily=Noto Sans KR;fontSource=https%3A%2F%2Ffonts.googleapis.com%2Fcss%3Ffamily%3DNoto%2BSans%2BKR;fillColor=#B5E2CA;" parent="1" vertex="1">
                    <mxGeometry x="280" y="130" width="120" height="60" as="geometry"/>
                </mxCell>
                <mxCell id="66" value="상의 선택" style="rounded=0;whiteSpace=wrap;html=1;strokeWidth=2;fontStyle=1;fontColor=#000000;fontSize=13;fontFamily=Noto Sans KR;fontSource=https%3A%2F%2Ffonts.googleapis.com%2Fcss%3Ffamily%3DNoto%2BSans%2BKR;fillColor=#FFFFFF;strokeColor=#000000;" parent="1" vertex="1">
                    <mxGeometry x="450" y="140" width="90" height="40" as="geometry"/>
                </mxCell>
                <mxCell id="67" value="하의 선택" style="rounded=0;whiteSpace=wrap;html=1;strokeWidth=2;fontStyle=1;fontColor=#000000;fontSize=13;fontFamily=Noto Sans KR;fontSource=https%3A%2F%2Ffonts.googleapis.com%2Fcss%3Ffamily%3DNoto%2BSans%2BKR;fillColor=#FFFFFF;strokeColor=#000000;" parent="1" vertex="1">
                    <mxGeometry x="590" y="140" width="90" height="40" as="geometry"/>
                </mxCell>
                <mxCell id="68" value="신발 선택" style="rounded=0;whiteSpace=wrap;html=1;strokeWidth=2;fontStyle=1;fontColor=#000000;fontSize=13;fontFamily=Noto Sans KR;fontSource=https%3A%2F%2Ffonts.googleapis.com%2Fcss%3Ffamily%3DNoto%2BSans%2BKR;fillColor=#FFFFFF;strokeColor=#000000;" parent="1" vertex="1">
                    <mxGeometry x="730" y="140" width="90" height="40" as="geometry"/>
                </mxCell>
                <mxCell id="70" style="edgeStyle=orthogonalEdgeStyle;rounded=0;orthogonalLoop=1;jettySize=auto;html=1;exitX=1;exitY=0.5;exitDx=0;exitDy=0;endArrow=none;endFill=0;strokeColor=#000000;strokeWidth=2;fontFamily=Noto Sans KR;fontSource=https%3A%2F%2Ffonts.googleapis.com%2Fcss%3Ffamily%3DNoto%2BSans%2BKR;fontSize=13;fontColor=#000000;entryX=0;entryY=0.5;entryDx=0;entryDy=0;" parent="1" source="65" target="66" edge="1">
                    <mxGeometry relative="1" as="geometry">
                        <mxPoint x="440" y="-35" as="targetPoint"/>
                        <mxPoint x="410" y="584.9999999999998" as="sourcePoint"/>
                    </mxGeometry>
                </mxCell>
                <mxCell id="71" style="edgeStyle=orthogonalEdgeStyle;rounded=1;orthogonalLoop=1;jettySize=auto;html=1;exitX=1;exitY=0.5;exitDx=0;exitDy=0;endArrow=blockThin;endFill=1;strokeColor=#000000;strokeWidth=2;fontFamily=Noto Sans KR;fontSource=https%3A%2F%2Ffonts.googleapis.com%2Fcss%3Ffamily%3DNoto%2BSans%2BKR;fontSize=13;fontColor=#000000;entryX=0;entryY=0.5;entryDx=0;entryDy=0;" parent="1" source="66" target="67" edge="1">
                    <mxGeometry relative="1" as="geometry">
                        <mxPoint x="550" y="584.9999999999998" as="sourcePoint"/>
                        <mxPoint x="590" y="15" as="targetPoint"/>
                    </mxGeometry>
                </mxCell>
                <mxCell id="72" style="edgeStyle=orthogonalEdgeStyle;rounded=1;orthogonalLoop=1;jettySize=auto;html=1;exitX=1;exitY=0.5;exitDx=0;exitDy=0;entryX=0;entryY=0.5;entryDx=0;entryDy=0;endArrow=blockThin;endFill=1;strokeColor=#000000;strokeWidth=2;fontFamily=Noto Sans KR;fontSource=https%3A%2F%2Ffonts.googleapis.com%2Fcss%3Ffamily%3DNoto%2BSans%2BKR;fontSize=13;fontColor=#000000;" parent="1" source="67" target="68" edge="1">
                    <mxGeometry relative="1" as="geometry">
                        <mxPoint x="560" y="594.9999999999998" as="sourcePoint"/>
                        <mxPoint x="610" y="594.9999999999998" as="targetPoint"/>
                    </mxGeometry>
                </mxCell>
                <mxCell id="77" value="" style="rhombus;whiteSpace=wrap;html=1;strokeColor=#3B88D9;strokeWidth=2;fillColor=#B5E2CA;gradientColor=none;fontSize=13;fontColor=#000000;" parent="1" vertex="1">
                    <mxGeometry x="540" y="505" width="30" height="30" as="geometry"/>
                </mxCell>
                <mxCell id="78" value="" style="endArrow=none;html=1;strokeColor=#000000;strokeWidth=2;fontSize=13;fontColor=#000000;entryX=0;entryY=0.5;entryDx=0;entryDy=0;edgeStyle=orthogonalEdgeStyle;exitX=1;exitY=0.5;exitDx=0;exitDy=0;rounded=0;" parent="1" source="77" target="82" edge="1">
                    <mxGeometry width="50" height="50" relative="1" as="geometry">
                        <mxPoint x="540" y="355" as="sourcePoint"/>
                        <mxPoint x="605" y="424.9999999999998" as="targetPoint"/>
                    </mxGeometry>
                </mxCell>
                <mxCell id="79" value="" style="endArrow=none;html=1;strokeColor=#000000;strokeWidth=2;fontSize=13;fontColor=#000000;exitX=1;exitY=0.5;exitDx=0;exitDy=0;entryX=0;entryY=0.5;entryDx=0;entryDy=0;edgeStyle=orthogonalEdgeStyle;rounded=0;" parent="1" source="77" target="83" edge="1">
                    <mxGeometry width="50" height="50" relative="1" as="geometry">
                        <mxPoint x="560" y="495" as="sourcePoint"/>
                        <mxPoint x="605" y="484.9999999999998" as="targetPoint"/>
                    </mxGeometry>
                </mxCell>
                <mxCell id="82" value="내 옷 입어보기" style="rounded=0;whiteSpace=wrap;html=1;strokeWidth=2;strokeColor=#000000;fontStyle=1;fontColor=#000000;fontSize=13;fontFamily=Noto Sans KR;fontSource=https%3A%2F%2Ffonts.googleapis.com%2Fcss%3Ffamily%3DNoto%2BSans%2BKR;fillColor=#FFFFFF;" parent="1" vertex="1">
                    <mxGeometry x="600" y="470" width="90" height="40" as="geometry"/>
                </mxCell>
                <mxCell id="83" value="내 룩 입어보기" style="rounded=0;whiteSpace=wrap;html=1;strokeWidth=2;strokeColor=#000000;fontStyle=1;fontColor=#000000;fontSize=13;fontFamily=Noto Sans KR;fontSource=https%3A%2F%2Ffonts.googleapis.com%2Fcss%3Ffamily%3DNoto%2BSans%2BKR;fillColor=#FFFFFF;" parent="1" vertex="1">
                    <mxGeometry x="600" y="530" width="90" height="40" as="geometry"/>
                </mxCell>
                <mxCell id="84" value="" style="endArrow=diamondThin;html=1;strokeWidth=2;fontSize=13;fontColor=#000000;strokeColor=#000000;edgeStyle=orthogonalEdgeStyle;endFill=1;exitX=0.5;exitY=0;exitDx=0;exitDy=0;entryX=0;entryY=0.5;entryDx=0;entryDy=0;dashed=1;dashPattern=1 1;rounded=1;" parent="1" source="15" target="65" edge="1">
                    <mxGeometry width="50" height="50" relative="1" as="geometry">
                        <mxPoint x="245" y="290" as="sourcePoint"/>
                        <mxPoint x="290" y="145" as="targetPoint"/>
                    </mxGeometry>
                </mxCell>
                <mxCell id="105" style="edgeStyle=orthogonalEdgeStyle;rounded=1;orthogonalLoop=1;jettySize=auto;html=1;exitX=1;exitY=0.5;exitDx=0;exitDy=0;entryX=0;entryY=0.5;entryDx=0;entryDy=0;endArrow=none;endFill=0;strokeColor=#000000;strokeWidth=2;fontFamily=Noto Sans KR;fontSource=https%3A%2F%2Ffonts.googleapis.com%2Fcss%3Ffamily%3DNoto%2BSans%2BKR;fontSize=13;fontColor=#000000;" parent="1" source="103" target="64" edge="1">
                    <mxGeometry relative="1" as="geometry"/>
                </mxCell>
                <mxCell id="103" value="??" style="rounded=0;whiteSpace=wrap;html=1;fillColor=#9ACCE2;strokeWidth=2;strokeColor=#3B88D9;fontStyle=1;fontColor=#000000;fontSize=13;fontFamily=Noto Sans KR;fontSource=https%3A%2F%2Ffonts.googleapis.com%2Fcss%3Ffamily%3DNoto%2BSans%2BKR;" parent="1" vertex="1">
                    <mxGeometry x="435" y="600" width="120" height="60" as="geometry"/>
                </mxCell>
                <mxCell id="107" value="내 옷장에 추가" style="rounded=0;whiteSpace=wrap;html=1;strokeWidth=2;strokeColor=#000000;fontStyle=1;fontColor=#000000;fontSize=13;fontFamily=Noto Sans KR;fontSource=https%3A%2F%2Ffonts.googleapis.com%2Fcss%3Ffamily%3DNoto%2BSans%2BKR;fillColor=#FFFFFF;" vertex="1" parent="1">
                    <mxGeometry x="320" y="750" width="90" height="40" as="geometry"/>
                </mxCell>
                <mxCell id="108" style="edgeStyle=orthogonalEdgeStyle;rounded=1;orthogonalLoop=1;jettySize=auto;html=1;exitX=1;exitY=0.5;exitDx=0;exitDy=0;entryX=0.5;entryY=0;entryDx=0;entryDy=0;endArrow=blockThin;endFill=1;strokeColor=#000000;strokeWidth=2;fontFamily=Noto Sans KR;fontSource=https%3A%2F%2Ffonts.googleapis.com%2Fcss%3Ffamily%3DNoto%2BSans%2BKR;fontSize=13;fontColor=#000000;" edge="1" parent="1" source="60" target="107">
                    <mxGeometry relative="1" as="geometry">
                        <mxPoint x="275" y="730" as="sourcePoint"/>
                        <mxPoint x="275" y="760" as="targetPoint"/>
                    </mxGeometry>
                </mxCell>
            </root>
        </mxGraphModel>
    </diagram>
</mxfile>
